<?xml version="1.0" encoding="UTF-8"?>
<svg id="Layer_3" data-name="Layer 3" xmlns="http://www.w3.org/2000/svg" viewBox="0 0 718 808.34">
  <defs>
    <style>
      .cls-1 {
        fill: none;
        stroke: #4d2e84;
        stroke-linecap: round;
        stroke-linejoin: round;
        stroke-width: 16px;
      }

      .cls-2 {
        fill: #4d2e84;
      }
    </style>
  </defs>
  <path class="cls-1" d="M71,752.44c-.14-14.89-.14-29.89,0-45,1.08-117.94,10.58-230.04,26.02-335.69,.84-5.74,1.17-11.54,1.03-17.34-2.22-93.16,25.98-163.14,58.24-168.63,34.78-5.92,91.61,60.16,115.91,170h173.87c26.06-109.31,81.39-175.67,115.91-170,31.8,5.23,58.1,73.56,58.01,163.28,0,4.72,.34,9.43,1.01,14.1,15.47,108.56,24.94,223.51,25.99,344.28,.13,15.1,.13,30.11,0,45H71Z"/>
  <circle class="cls-1" cx="219.5" cy="464.44" r="63"/>
  <polygon class="cls-1" points="323 500.44 395 500.44 359 563.44 323 500.44"/>
  <circle class="cls-1" cx="498.5" cy="464.44" r="63"/>
  <path class="cls-1" d="M296,752.44v-77.3c0-32.47,26.8-59.56,60.73-60.41,.75-.02,1.5-.03,2.27-.03,.11,0,.24,0,.38,0,34.67,.17,62.62,27.24,62.62,60.4v77.34h-126Z"/>
  <circle class="cls-2" cx="390.5" cy="693.94" r="4.5"/>
  <line class="cls-1" x1="134" y1="527.44" x2="8" y2="482.44"/>
  <line class="cls-1" x1="125" y1="563.44" x2="17" y2="545.44"/>
  <line class="cls-1" x1="125" y1="590.44" x2="26" y2="608.44"/>
  <line class="cls-1" x1="584" y1="527.44" x2="710" y2="482.44"/>
  <line class="cls-1" x1="593" y1="563.44" x2="701" y2="545.44"/>
  <line class="cls-1" x1="593" y1="590.44" x2="692" y2="608.44"/>
</svg>